<?xml version="1.0" encoding="utf-8"?>
<!-- Generator: Adobe Illustrator 22.0.1, SVG Export Plug-In . SVG Version: 6.00 Build 0)  -->
<svg version="1.1" id="Layer_1" xmlns="http://www.w3.org/2000/svg" xmlns:xlink="http://www.w3.org/1999/xlink" x="0px" y="0px"
	 viewBox="0 0 512 512" style="enable-background:new 0 0 512 512;" xml:space="preserve">
<style type="text/css">
	.st0{fill:#494949;}
	.st1{fill:#2D2D2D;}
	.st2{fill:#FFFFFF;}
	.st3{fill:#F1F4F6;}
	.st4{fill:#DAEAEC;}
	.st5{fill:#CEDFE2;}
</style>
<g>
	<g>
		<g>
			<g id="XMLID_2796_">
				<g id="XMLID_2797_">
					<g id="XMLID_2798_">
						<g id="XMLID_2799_">
							<g id="XMLID_2800_">
								<g id="XMLID_2801_">
									<g id="XMLID_2802_">
										<g id="XMLID_2803_">
											<g id="XMLID_2804_">
												<g id="XMLID_2805_">
													<g id="XMLID_2806_">
														<g id="XMLID_2807_">
															<g id="XMLID_2808_">
																<g id="XMLID_2817_">
																	<g id="XMLID_3410_">
																		<circle class="st0" cx="256" cy="256" r="256"/>
																	</g>
																</g>
															</g>
														</g>
													</g>
												</g>
											</g>
										</g>
									</g>
								</g>
							</g>
						</g>
					</g>
				</g>
			</g>
		</g>
	</g>
	<path class="st1" d="M511.8,264.7L276.6,29.4l-26.3,131.7l-57.1,41.9l32.5,29.6l-13.4,193.7l-74.9,34.3l38.6,38.6
		C201.1,507.5,228,512,256,512C394.5,512,507.2,402.1,511.8,264.7z"/>
	<g>
		<path class="st2" d="M256,189.8c-47.6-21.8-57.2-42.7-53-70.1c4.5-29.3,53-74.9,53-74.9s16.5,15.5,31.2,34.3
			c1.8,2.3,1.6,5.6-0.5,7.6l-11.4,11.4c-5.9,5.9-5.9,15.4,0,21.2c5.9,5.9,15.4,5.9,21.2,0l2.8-2.8c3.3-3.3,9-1.5,9.7,3.1
			c0,0,0,0.1,0,0.1C313.2,147.1,303.5,168,256,189.8z"/>
		<path class="st3" d="M256,189.8v-145c0,0,5.4,5.1,12.8,12.9c5.5,5.9,12.1,13.3,18.4,21.3c1.8,2.3,1.6,5.6-0.5,7.6l-11.4,11.4
			c-5.9,5.9-5.9,15.4,0,21.2c2.9,2.9,6.8,4.4,10.6,4.4s7.7-1.5,10.6-4.4l2.8-2.8c3.3-3.3,9-1.5,9.8,3.1c0,0,0,0.1,0,0.1
			C313.2,147.1,303.5,168,256,189.8L256,189.8z"/>
		<g>
			<path class="st2" d="M322,343.9c-11.5-36.8-23.9-46.5-23.9-109.2v-50.7H214v50.7c0,62.8-12.4,72.4-23.9,109.2
				c-7.4,23.6-11.2,48.9-11.2,58.8h154.2C333.1,392.8,329.3,367.5,322,343.9z"/>
			<path class="st3" d="M333.1,402.7H256V183.9h42v50.7c0,62.8,12.4,72.4,23.9,109.2C329.3,367.5,333.1,392.8,333.1,402.7
				L333.1,402.7z"/>
		</g>
		<path class="st3" d="M193.1,164.8h125.7v38.2H193.1L193.1,164.8z"/>
		<path class="st4" d="M256,164.8h62.9v38.2H256V164.8z"/>
		<g>
			<path class="st4" d="M154.2,382.3h203.6V424H154.2L154.2,382.3z"/>
			<path class="st5" d="M256,382.3h101.8V424H256V382.3z"/>
			<path class="st3" d="M137.3,422.2h237.3v38.5H137.3V422.2z"/>
			<g>
				<path class="st4" d="M256,422.2h118.7v38.5H256V422.2z"/>
			</g>
		</g>
		<ellipse transform="matrix(0.3222 -0.9467 0.9467 0.3222 136.5173 268.7611)" class="st4" cx="256" cy="39" rx="22.7" ry="22.7"/>
		<path class="st5" d="M278.7,39c0,7.8-3.9,14.7-9.9,18.7c-3.6,2.5-8,4-12.8,4V16.3C268.5,16.3,278.7,26.5,278.7,39z"/>
	</g>
</g>
</svg>
