<svg id="Layer_1" enable-background="new 0 0 512.003 512.003" height="512" viewBox="0 0 512.003 512.003" width="512" xmlns="http://www.w3.org/2000/svg"><g id="XMLID_31_"><g id="XMLID_2721_"><g id="XMLID_2720_"><path id="XMLID_974_" d="m316.214 242.812.254-.068c38.182-10.231 72.596-31.271 99.108-60.591 5.406 20.176 2.309 40.616-7.068 57.552 9.559 5.756 17.895 13.558 24.274 23.008-.799 11.373-4.118 22.298-9.518 32.062 16.588 9.979 29.491 26.132 34.897 46.307-37.619-12.137-77.943-13.15-116.125-2.92l-.254.068z" fill="#ffcd69"/></g><g id="XMLID_2718_"><path d="m86.92 502 65.181-17.465c17.948-60.068 65.76-106.534 126.316-122.76l65.006-17.418-28.85-107.671-65.006 17.418c-60.556 16.226-125.195-.109-170.773-43.155l-65.181 17.465z" fill="#ffe6b4"/></g><g id="XMLID_1023_"><g id="XMLID_1033_"><path id="XMLID_954_" d="m78.793 210.948-65.181 17.465 73.308 273.587 65.181-17.465c.062-.208.134-.413.197-.622l-73.023-272.525c-.159-.149-.323-.29-.482-.44z" fill="#ffcd69"/></g><g id="XMLID_1040_"><path id="XMLID_5_" d="m278.417 361.775 65.006-17.418-28.85-107.671-65.006 17.418c-60.346 16.169-124.741-.003-170.292-42.715l73.023 272.525c18.092-59.766 65.773-105.97 126.119-122.139z" fill="#ffe6b4"/></g></g><g id="XMLID_2714_"><circle cx="465.13" cy="253.932" fill="#ffe6b4" r="33.255"/></g></g><g id="XMLID_470_"><path id="XMLID_956_" d="m506.912 242.735c-2.991-11.159-10.148-20.487-20.154-26.264-10.006-5.778-21.663-7.312-32.823-4.321-14.053 3.766-24.627 14.082-29.346 26.78-1.082-.902-2.179-1.788-3.304-2.638 7.612-17.9 9.042-37.728 3.95-56.729-.948-3.538-3.754-6.274-7.314-7.134-3.56-.857-7.305.297-9.762 3.015-23.09 25.538-52.297 44.374-84.937 54.88l-1.972-7.36c-1.43-5.334-6.909-8.501-12.248-7.071-5.334 1.43-8.5 6.913-7.071 12.247l.395 1.473-55.347 14.831c-56.774 15.214-118.587-.408-161.318-40.767-2.523-2.383-6.1-3.29-9.455-2.389l-65.181 17.465c-2.562.687-4.746 2.362-6.072 4.659s-1.686 5.026-.999 7.588l24.716 92.242c1.43 5.336 6.916 8.506 12.248 7.071 5.334-1.43 8.5-6.913 7.071-12.247l-22.129-82.582 45.862-12.289 68.131 254.269-45.863 12.289-22.608-84.374c-1.429-5.335-6.909-8.5-12.248-7.071-5.334 1.43-8.5 6.913-7.071 12.247l25.196 94.033c1.197 4.468 5.237 7.415 9.653 7.415.856 0 1.728-.111 2.595-.344l65.181-17.465c3.353-.898 6-3.471 6.994-6.796 16.827-56.316 62.549-100.752 119.323-115.965l55.347-14.83.395 1.473c1.197 4.468 5.237 7.415 9.653 7.415.856 0 1.728-.111 2.595-.344 5.334-1.43 8.5-6.913 7.071-12.247l-1.972-7.361c33.513-7.221 68.228-5.512 100.998 5.058 1.007.325 2.042.483 3.069.483 2.527 0 5.005-.959 6.892-2.754 2.654-2.523 3.716-6.297 2.768-9.834-5.091-19.001-16.243-35.457-31.785-47.154.564-1.336 1.085-2.689 1.583-4.051 7.647 6.29 17.362 9.904 27.524 9.904 3.695 0 7.449-.478 11.184-1.479 23.037-6.173 36.758-29.938 30.585-52.977zm-231.083 109.38c-31.357 8.402-60.237 24.803-83.517 47.428-15.794 15.349-28.779 33.366-38.411 53.073l-57.589-214.925c18.195 12.25 38.449 21.361 59.801 26.757 31.474 7.953 64.684 7.717 96.042-.686l55.347-14.831 23.674 88.354zm165.186-26.01c-30.333-6.631-61.683-6.593-92.1.11l-20.516-76.568c29.703-9.409 56.868-25.05 79.816-45.955-.234 10.806-3.087 21.47-8.456 31.167-2.606 4.708-1.02 10.635 3.59 13.41 7.397 4.454 13.95 10.359 19.121 17.204-1.055 8.513-3.778 16.903-7.957 24.459-2.604 4.709-1.015 10.635 3.596 13.409 9.499 5.716 17.3 13.524 22.906 22.764zm30.135-49.71c-12.386 3.317-25.163-4.059-28.482-16.444-3.318-12.386 4.058-25.162 16.444-28.481 2.003-.537 4.037-.803 6.057-.803 4.029 0 8.006 1.057 11.589 3.126 5.379 3.105 9.228 8.12 10.835 14.12 3.319 12.386-4.058 25.162-16.443 28.482z"/><path id="XMLID_961_" d="m334.934 181c5.523 0 10-4.478 10-10v-161c0-5.522-4.477-10-10-10s-10 4.478-10 10v161c0 5.522 4.477 10 10 10z"/><path id="XMLID_962_" d="m254.934 181c5.523 0 10-4.478 10-10v-121c0-5.522-4.477-10-10-10s-10 4.478-10 10v121c0 5.522 4.477 10 10 10z"/><path id="XMLID_963_" d="m174.934 181c5.523 0 10-4.478 10-10v-82.512c0-5.522-4.477-10-10-10s-10 4.478-10 10v82.512c0 5.522 4.477 10 10 10z"/><path id="XMLID_964_" d="m60.143 364.75c0-2.63-1.07-5.21-2.93-7.07s-4.44-2.93-7.07-2.93-5.21 1.069-7.07 2.93-2.93 4.44-2.93 7.07 1.07 5.2 2.93 7.069c1.86 1.86 4.44 2.931 7.07 2.931s5.21-1.07 7.07-2.931c1.86-1.859 2.93-4.439 2.93-7.069z"/></g></g></svg>