<svg id="Capa_1" enable-background="new 0 0 511.981 511.981" height="512" viewBox="0 0 511.981 511.981" width="512" xmlns="http://www.w3.org/2000/svg"><g><g><g><path d="m259.875 400.085-95.216 16.239-95.216-16.239c34.029-15.729 43.868-47.538 46.208-74.107.47-5.33.64-10.45.64-15.179l48.368-14.479 48.368 14.479c0 4.73.17 9.85.64 15.179 2.339 26.569 12.179 58.378 46.208 74.107z" fill="#f6f1f1"/><path d="m213.666 325.978c-.21.02-.42.02-.64.02h-96.736c-.22 0-.43 0-.64-.02.47-5.33.64-10.45.64-15.179l48.368-14.479 48.368 14.479c0 4.729.17 9.849.64 15.179z" fill="#dfdfdf"/><path d="m116.167 400.084 48.488 16.239-95.216-16.239c40.848-18.889 46.848-60.938 46.848-89.287l48.368-14.479-24.629 14.479c0 28.35-3.06 70.398-23.859 89.287z" fill="#dfdfdf"/><path d="m229.846 211.042c0 13.759-4.26 26.529-11.54 37.039-11.76 17.009-31.399 28.159-53.648 28.159s-41.898-11.15-53.658-28.159c-7.28-10.51-11.54-23.279-11.54-37.039 0-35.999 29.189-65.188 65.198-65.188 35.999.001 65.188 29.19 65.188 65.188z" fill="#f6f1f1"/><path d="m218.306 248.081c-11.76 17.009-31.399 28.159-53.648 28.159s-41.898-11.15-53.658-28.159c1.7-.4 3.47-.61 5.29-.61h96.736c1.82 0 3.58.21 5.28.61z" fill="#dfdfdf"/><path d="m184.451 273.183c-6.24 1.99-12.899 3.06-19.799 3.06-35.999 0-65.187-29.189-65.187-65.198 0-35.999 29.189-65.188 65.187-65.188 6.9 0 13.56 1.07 19.799 3.06-26.329 8.38-45.398 33.029-45.398 62.128 0 29.109 19.069 53.758 45.398 62.138z" fill="#dfdfdf"/><path d="m69.438 450.965v-50.879h190.433v50.879" fill="#f6f1f1"/><path d="m69.438 400.087h46.728v50.878h-46.728z" fill="#dfdfdf"/><path d="m259.871 432.564h-190.433c-13.943 0-25.245 11.303-25.245 25.245v46.671h240.923v-46.67c0-13.943-11.302-25.246-25.245-25.246z" fill="#f6f1f1"/><path d="m147.929 432.564c-13.95 0-25.249 11.3-25.249 25.249v46.668h-78.487v-46.668c0-13.949 11.299-25.249 25.249-25.249z" fill="#dfdfdf"/><path d="m92.878 287.389c0-12.929 10.481-23.409 23.409-23.409h96.735c12.929 0 23.409 10.481 23.409 23.409 0 12.928-10.481 23.409-23.409 23.409h-96.735c-12.928 0-23.409-10.481-23.409-23.409z" fill="#f6f1f1"/><path d="m159.305 310.798h-43.018c-12.929 0-23.409-10.48-23.409-23.409s10.48-23.409 23.409-23.409h43.018c-12.929 0-23.409 10.48-23.409 23.409s10.48 23.409 23.409 23.409z" fill="#dfdfdf"/></g><g><path d="m439.548 387.686-106.526 19.359-106.526-19.359c39.988-18.489 50.128-120.275 52.038-166.664.28-6.62.38-12.11.38-16.069l54.108-26.189 54.118 26.189c0 3.96.1 9.45.38 16.069 1.9 46.388 12.039 148.174 52.028 166.664z" fill="#665e66"/><path d="m387.52 221.022c-.13.01-.25.01-.38.01h-108.226c-.13 0-.25 0-.38-.01.28-6.62.38-12.11.38-16.069l54.108-26.189 54.118 26.189c0 3.959.1 9.449.38 16.069z" fill="#454045"/><path d="m285.118 387.688 47.908 19.359-106.526-19.359c45.698-21.129 52.418-151.014 52.418-182.733l54.108-26.189-24.329 26.189c0 31.719-3.02 161.604-23.579 182.733z" fill="#454045"/><path d="m226.5 444.444v-56.756h213.048v56.756" fill="#665e66"/><path d="m226.5 444.444v-56.756h58.616v56.756" fill="#454045"/><path d="m439.548 424.024h-213.048c-15.598 0-28.244 12.645-28.244 28.243v52.214h269.535v-52.214c0-15.598-12.645-28.243-28.243-28.243z" fill="#665e66"/><path d="m322.932 424.028c-15.599 0-28.249 12.64-28.249 28.239v52.218h-96.426v-52.218c0-15.599 12.65-28.239 28.239-28.239z" fill="#454045"/><path d="m252.723 178.766c0-14.464 11.725-26.189 26.189-26.189h108.223c14.464 0 26.189 11.725 26.189 26.189 0 14.464-11.725 26.189-26.189 26.189h-108.223c-14.464 0-26.189-11.725-26.189-26.189z" fill="#665e66"/><path d="m321.17 204.955h-42.258c-14.459 0-26.189-11.72-26.189-26.189 0-14.459 11.73-26.189 26.189-26.189h42.258c-14.459 0-26.189 11.73-26.189 26.189.001 14.47 11.73 26.189 26.189 26.189z" fill="#454045"/><path d="m444.277 7.5-9.66 106.756c-1.97 21.699-20.159 38.318-41.948 38.318h-119.285c-21.789 0-39.988-16.619-41.948-38.318l-9.67-106.756h36.759l6.247 46.795c1.152 8.629 8.513 15.073 17.219 15.073 9.594 0 17.372-7.778 17.372-17.372v-44.496h67.327v44.496c0 9.594 7.778 17.372 17.372 17.372 8.706 0 16.067-6.444 17.219-15.073l6.248-46.795z" fill="#665e66"/><path d="m337.892 152.574h-64.508c-21.789 0-39.988-16.619-41.948-38.318l-9.67-106.756h36.759l6.25 46.798c1.15 8.63 8.51 15.069 17.219 15.069 3.55 0 6.87-1.07 9.62-2.91l4.33 47.798c1.959 21.7 20.158 38.319 41.948 38.319z" fill="#454045"/></g></g><path d="m447.047 417.322v-29.634c0-3.005-1.771-5.59-4.323-6.786-.011-.005-.019-.013-.03-.018-5.885-2.718-11.447-8.047-16.534-15.84-2.263-3.469-6.91-4.446-10.379-2.182s-4.446 6.911-2.182 10.38c1.631 2.5 3.325 4.815 5.077 6.947h-171.36c12.99-15.838 23.01-42.098 29.895-78.503 6.377-33.717 8.648-69.028 9.107-89.23h93.399c.669 31.315 5.458 90.362 20.302 132.233 1.091 3.075 3.982 4.996 7.069 4.996.832 0 1.678-.139 2.506-.433 3.904-1.384 5.947-5.671 4.563-9.575-14.315-40.38-18.867-97.943-19.458-128.088 14.943-3.444 26.123-16.847 26.123-32.822 0-8.689-3.308-16.62-8.729-22.602 16.397-6.911 28.278-22.365 29.992-41.233l9.66-106.756c.189-2.098-.512-4.179-1.933-5.734-1.418-1.556-3.428-2.442-5.534-2.442h-36.749c-3.759 0-6.937 2.782-7.434 6.508l-6.247 46.794c-.652 4.883-4.859 8.566-9.786 8.566-5.443 0-9.871-4.429-9.871-9.872v-44.496c0-4.142-3.357-7.5-7.5-7.5h-67.328c-4.143 0-7.5 3.358-7.5 7.5v44.496c0 5.443-4.429 9.872-9.872 9.872-4.926 0-9.133-3.683-9.785-8.566l-6.247-46.794c-.498-3.726-3.675-6.508-7.434-6.508h-36.759c-2.107 0-4.116.886-5.537 2.442-1.421 1.555-2.123 3.637-1.932 5.735l9.669 106.754c1.704 18.868 13.584 34.323 29.986 41.234-5.421 5.981-8.729 13.912-8.729 22.601 0 15.971 11.174 29.371 26.112 32.819-.411 19.497-2.596 54.182-8.861 87.312-6.413 33.907-15.494 58.237-26.645 71.77-5.102-7.397-8.969-16.126-11.507-26.077-2.106-8.258-3.306-17.235-3.668-27.249 13.365-3.407 23.278-15.543 23.278-29.954 0-14.431-9.942-26.581-23.336-29.967 10.679-12.911 16.745-29.305 16.745-46.379 0-40.081-32.608-72.69-72.69-72.69-17.932 0-35.151 6.586-48.487 18.546-3.084 2.765-3.342 7.507-.576 10.591s7.508 3.341 10.591.576c10.58-9.488 24.243-14.713 38.473-14.713 31.811 0 57.69 25.88 57.69 57.69 0 17.736-8.257 34.539-22.174 45.437h-71.022c-13.917-10.898-22.174-27.7-22.174-45.437 0-7.398 1.381-14.604 4.104-21.416 1.538-3.846-.334-8.21-4.18-9.748-3.848-1.538-8.21.334-9.749 4.18-3.434 8.591-5.176 17.67-5.176 26.984 0 17.073 6.066 33.467 16.745 46.378-13.395 3.386-23.338 15.536-23.338 29.968 0 14.411 9.914 26.548 23.279 29.954-1.443 38.057-15.672 63.593-42.365 75.936-.018.008-.03.02-.047.029-2.542 1.201-4.305 3.78-4.305 6.778v25.855c-14.454 3.401-25.249 16.395-25.249 31.872v46.668c0 4.142 3.358 7.5 7.5 7.5h423.602c4.143 0 7.5-3.358 7.5-7.5v-52.214c-.002-17.134-12.126-31.487-28.246-34.943zm-208.142-303.743-8.929-98.579h21.983l5.379 40.287c1.643 12.303 12.241 21.581 24.653 21.581 13.714 0 24.871-11.157 24.871-24.872v-36.996h52.328v36.996c0 13.715 11.157 24.872 24.871 24.872 12.412 0 23.011-9.278 24.653-21.581l5.38-40.287h21.975l-8.921 98.578c-1.63 17.956-16.452 31.497-34.479 31.497h-119.285c-18.035-.001-32.857-13.54-34.479-31.496zm21.318 65.187c0-10.305 8.384-18.689 18.689-18.689h108.223c10.306 0 18.689 8.384 18.689 18.689 0 10.296-8.37 18.673-18.663 18.688-.011 0-.021-.002-.031-.002-.02 0-.038.003-.058.003h-108.16c-10.305.001-18.689-8.383-18.689-18.689zm-56.87 246.298h-126.414v-17.479h142.061v9.737c-5.88 1.261-11.225 3.973-15.647 7.742zm30.647-29.876h198.047v21.336h-198.047zm-133.622-107.799c0-8.772 7.137-15.909 15.909-15.909h96.735c8.772 0 15.909 7.137 15.909 15.909s-7.137 15.909-15.909 15.909h-96.735c-8.772 0-15.909-7.137-15.909-15.909zm23.253 30.909h82.058c1.017 25.389 7.263 46.214 18.636 62.093-.324.166-.647.339-.973.49-.02.009-.034.023-.053.032-2.539 1.202-4.3 3.78-4.3 6.775v4.897h-124.721c18.227-16.71 28.066-41.577 29.353-74.287zm-71.941 139.515c0-9.787 7.962-17.749 17.749-17.749h123.465c-1.388 3.81-2.147 7.92-2.147 12.204v44.714h-139.067zm408.601 39.168h-254.535v-44.714c0-11.438 9.306-20.743 20.744-20.743h213.047c11.438 0 20.744 9.305 20.744 20.743z"/></g></svg>