<svg id="Layer_1" enable-background="new 0 0 512 512" height="512" viewBox="0 0 512 512" width="512" xmlns="http://www.w3.org/2000/svg"><g><g><g><g id="XMLID_1696_"><g id="XMLID_1697_"><g id="XMLID_1698_"><g id="XMLID_1699_"><g id="XMLID_1700_"><g id="XMLID_1701_"><g id="XMLID_1702_"><g id="XMLID_1703_"><g id="XMLID_1704_"><g id="XMLID_1705_"><g id="XMLID_1706_"><g id="XMLID_1722_"><g id="XMLID_1723_"><g id="XMLID_1724_"><g id="XMLID_1725_"><circle cx="256" cy="256" fill="#494949" r="256"/></g></g></g></g></g></g></g></g></g></g></g></g></g></g></g></g></g><path d="m511.961 259.087-240.961-240.961-24.425 38.724-39.167 24.868 39.704 38.58-53.973 86.757 27.078 30.73c0 55.836-18.406 150.078-19.295 160.638l-63.595 66.999 31.257 31.257c27.277 9.91 56.714 15.321 87.416 15.321 140.353 0 254.304-112.953 255.961-252.913z" fill="#2d2d2d"/><g><path d="m304.592 51.718h-33.592v-33.592h-30v33.592h-33.592v30h33.592v43.392h30v-43.392h33.592z" fill="#daeaec"/><path d="m304.59 51.72v30h-33.59v43.39h-15v-106.98h15v33.59z" fill="#cedfe2"/><g><path d="m321.952 328.684c-11.512-32.731-23.905-41.325-23.905-97.161v-45.126h-84.092v45.126c0 55.836-12.394 64.43-23.905 97.161-7.38 20.978-11.153 43.521-11.153 52.266h154.21c-.002-8.745-3.775-31.288-11.155-52.266z" fill="#fff"/><path d="m333.105 380.949h-77.105v-194.553h42.046v45.126c0 55.836 12.394 64.43 23.905 97.161 7.381 20.979 11.154 43.522 11.154 52.266z" fill="#f1f4f6"/></g><path d="m195.669 114.186 20.161 75.871h40.17 40.17l20.161-75.871z" fill="#fff"/><path d="m316.33 114.184-20.16 75.877h-40.17v-75.875z" fill="#f1f4f6"/><path d="m193.139 173.07h125.722v33.985h-125.722z" fill="#f1f4f6"/><path d="m256 173.066h62.859v33.987h-62.859z" fill="#daeaec"/><g><path d="m154.206 376.611h203.589v41.4h-203.589z" fill="#daeaec"/><path d="m256 376.606h101.793v41.402h-101.793z" fill="#cedfe2"/><path d="m137.326 416.392h237.348v49.03h-237.348z" fill="#f1f4f6"/><g><path d="m256 416.39h118.674v49.029h-118.674z" fill="#daeaec"/></g></g></g></g></svg>