<svg id="Layer_1" enable-background="new 0 0 512 512" height="512" viewBox="0 0 512 512" width="512" xmlns="http://www.w3.org/2000/svg"><g><g><g><g id="XMLID_1112_"><g id="XMLID_1370_"><g id="XMLID_1371_"><g id="XMLID_1372_"><g id="XMLID_1373_"><g id="XMLID_1374_"><g id="XMLID_1375_"><g id="XMLID_1376_"><g id="XMLID_1391_"><g id="XMLID_1392_"><g id="XMLID_1393_"><g id="XMLID_1394_"><g id="XMLID_1395_"><g id="XMLID_1396_"><g id="XMLID_1397_"><circle cx="256" cy="256" fill="#494949" r="256"/></g></g></g></g></g></g></g></g></g></g></g></g></g></g></g></g></g><path d="m308.958 64.311-39.529-39.373-17.799 52.666-41.799-32.675 18.711 99.552-38.474-14.072 6.268 39.531-6.268 11.509 21.827 20.258c0 5.317 21.007 130.186-7.567 158.212-20.992 20.591-88.389 88.715-88.389 88.715l32.502 39.723c32.704 15.163 69.138 23.643 107.559 23.643 141.385 0 256-114.615 256-256 0-11.898-.83-23.6-2.401-35.067l-185.299-175.4z" fill="#2d2d2d"/><path d="m331.51 311.83c-13.18-32.64-27.37-41.21-27.37-96.89v-45h-96.28v45c0 55.68-14.19 64.25-27.37 96.89-8.45 20.92-12.77 43.4-12.77 52.12h176.56c0-8.72-4.32-31.2-12.77-52.12z" fill="#fff"/><path d="m344.28 363.95h-88.28v-194.01h48.14v45c0 55.68 14.19 64.25 27.37 96.89 8.45 20.92 12.77 43.4 12.77 52.12z" fill="#f1f4f6"/><path d="m281.738 78.626-25.738-41.138-25.738 41.138-34.593-25.744 20.161 85.404h40.17 40.17l20.161-85.404z" fill="#fff"/><path d="m316.33 52.88-20.16 85.41h-40.17v-100.8l8.14 13.02 17.6 28.12z" fill="#f1f4f6"/><path d="m190.067 130.409h131.865v51.04h-131.865z" fill="#f1f4f6"/><path d="m256 130.403h65.93v51.043h-65.93z" fill="#daeaec"/><path d="m135.86 359.923h240.28v38.429h-240.28z" fill="#daeaec"/><path d="m256 359.919h120.139v38.431h-120.139z" fill="#cedfe2"/><path d="m115.938 396.849h280.123v51.784h-280.123z" fill="#f1f4f6"/><g><path d="m256 396.848h140.061v51.783h-140.061z" fill="#daeaec"/></g><circle cx="256" cy="35.488" fill="#f1f4f6" r="17.081"/><g><ellipse cx="199.063" cy="56.118" fill="#f1f4f6" rx="15.533" ry="15.533" transform="matrix(.23 -.973 .973 .23 98.711 236.963)"/><ellipse cx="312.937" cy="56.118" fill="#daeaec" rx="15.533" ry="15.533" transform="matrix(.707 -.707 .707 .707 51.976 237.716)"/></g><path d="m273.08 35.49c0 6.48-3.62 12.12-8.94 15.02-2.42 1.31-5.19 2.06-8.14 2.06v-34.16c9.43 0 17.08 7.64 17.08 17.08z" fill="#daeaec"/></g></svg>