<svg id="Layer_1" enable-background="new 0 0 512 512" height="512" viewBox="0 0 512 512" width="512" xmlns="http://www.w3.org/2000/svg"><g><g><g><g><g id="XMLID_844_"><g id="XMLID_845_"><g id="XMLID_846_"><g id="XMLID_847_"><g id="XMLID_848_"><g id="XMLID_849_"><g id="XMLID_852_"><g id="XMLID_853_"><g id="XMLID_854_"><g id="XMLID_855_"><g id="XMLID_856_"><g id="XMLID_857_"><g id="XMLID_858_"><g id="XMLID_859_"><g id="XMLID_860_"><circle cx="256" cy="256" fill="#494949" r="256"/></g></g></g></g></g></g></g></g></g></g></g></g></g></g></g></g></g><path d="m512 256c0-20.185-2.345-39.82-6.761-58.658l-156.959-156.158-27.384 33.25-37.832-33.25-49.754 31.42-35.533-31.42-34.057 69.97 15.959 15.265-4.882 16.776 21.539 21.746-6.268 11.509 21.827 20.258c0 5.317 8.256 83.629-20.318 111.656-20.992 20.591-75.638 138.38-75.638 138.38l39.853 44.895c30.777 13.103 64.644 20.361 100.208 20.361 141.385 0 256-114.615 256-256z" fill="#2d2d2d"/></g><g><g><path d="m304.136 164.94h-96.273v45.002c0 37.862-42.971 127.631-42.971 149.005h182.214c0-21.374-42.971-111.143-42.971-149.005.001-20.427.001-22.336.001-45.002z" fill="#fff"/></g><g><path d="m347.127 358.946h-91.127v-194.006h48.133v45.003c0 37.865 42.515 125.365 42.954 144.976.03 1.326.04 2.672.04 4.027z" fill="#f1f4f6"/></g><path d="m190.067 141.657h131.865v34.791h-131.865z" fill="#f1f4f6"/><path d="m256 141.653h65.93v34.793h-65.93z" fill="#daeaec"/><path d="m135.86 354.923h240.28v38.429h-240.28z" fill="#daeaec"/><path d="m256 354.919h120.139v38.431h-120.139z" fill="#cedfe2"/><path d="m115.938 391.849h280.123v54.893h-280.123z" fill="#f1f4f6"/><g><path d="m256 391.848h140.061v54.891h-140.061z" fill="#daeaec"/></g><path d="m174.797 105.528h162.406v37.665h-162.406z" fill="#daeaec"/><path d="m256 105.524h81.201v37.67h-81.201z" fill="#cedfe2"/><path d="m314.223 41.184v31.148h-31.159v-31.148h-54.128v31.148h-31.159v-31.148h-34.057v69.969h184.56v-69.969z" fill="#fff"/><path d="m348.279 41.183v69.967h-92.279v-69.967h27.06v31.146h31.166v-31.146z" fill="#f1f4f6"/></g></g></svg>